<svg width="1721" height="34" viewBox="0 0 1721 34" fill="none" xmlns="http://www.w3.org/2000/svg">
<path d="M951.992 18.9922L938.922 19.2617C938.922 19.2617 938.574 24.7422 932.363 24.7422C924.625 24.7422 925.164 18.4023 925.164 18.4023H915.703C915.703 18.4023 891.574 32.1602 860.625 32.1602C829.672 32.1602 805.543 18.4023 805.543 18.4023H796.086C796.086 18.4023 795.172 24.7422 788.883 24.7422C782.676 24.7422 782.328 19.2617 782.328 19.2617L768.949 18.9922C768.949 18.9922 722.355 16.3633 711.715 33.7734L0 16.8906L711.715 0C722.355 17.4102 768.949 14.7812 768.949 14.7812L782.328 14.5117C782.328 14.5117 783.324 9.03125 789.531 9.03125C795.816 9.03125 796.086 15.3711 796.086 15.3711H805.543C805.543 15.3711 829.672 1.61328 860.625 1.61328C891.574 1.61328 915.703 15.3711 915.703 15.3711H925.164C925.164 15.3711 925.434 9.03125 931.723 9.03125C937.922 9.03125 938.922 14.5117 938.922 14.5117L951.992 14.7812C951.992 14.7812 998.273 17.4102 1008.91 0L1720.63 16.8906L1008.91 33.7734C998.273 16.3633 951.992 18.9922 951.992 18.9922Z" fill="black"/>
</svg>
